<?xml version="1.0" encoding="UTF-8"?>
<svg width="14px" height="13px" viewBox="0 0 14 13" version="1.1" xmlns="http://www.w3.org/2000/svg" xmlns:xlink="http://www.w3.org/1999/xlink">
    <title>􀁌</title>
    <g id="タスク管理" stroke="none" stroke-width="1" fill="none" fill-rule="evenodd">
        <path d="M6.8984375,12.8344727 C7.74479167,12.8344727 8.54036458,12.6726074 9.28515625,12.348877 C10.0299479,12.0251465 10.6858724,11.5797526 11.2529297,11.0126953 C11.819987,10.445638 12.2643229,9.79077148 12.5859375,9.0480957 C12.9075521,8.30541992 13.0683594,7.51090495 13.0683594,6.66455078 C13.0683594,5.81819661 12.9075521,5.02368164 12.5859375,4.28100586 C12.2643229,3.53833008 11.818929,2.8824056 11.2497559,2.31323242 C10.6805827,1.74405924 10.0236003,1.29866536 9.27880859,0.977050781 C8.53401693,0.655436198 7.73844401,0.494628906 6.89208984,0.494628906 C6.05419922,0.494628906 5.26285807,0.655436198 4.51806641,0.977050781 C3.77327474,1.29866536 3.11629232,1.74405924 2.54711914,2.31323242 C1.97794596,2.8824056 1.53255208,3.53833008 1.2109375,4.28100586 C0.889322917,5.02368164 0.728515625,5.81819661 0.728515625,6.66455078 C0.728515625,7.51090495 0.890380859,8.30541992 1.21411133,9.0480957 C1.5378418,9.79077148 1.98323568,10.445638 2.55029297,11.0126953 C3.11735026,11.5797526 3.77327474,12.0251465 4.51806641,12.348877 C5.26285807,12.6726074 6.0563151,12.8344727 6.8984375,12.8344727 Z M6.8984375,11.6982422 C6.20442708,11.6982422 5.55273438,11.5681152 4.94335938,11.3078613 C4.33398438,11.0476074 3.79972331,10.6879069 3.34057617,10.2287598 C2.88142904,9.76961263 2.52278646,9.23535156 2.26464844,8.62597656 C2.00651042,8.01660156 1.87744141,7.36279297 1.87744141,6.66455078 C1.87744141,5.97054036 2.00651042,5.31884766 2.26464844,4.70947266 C2.52278646,4.10009766 2.88142904,3.56477865 3.34057617,3.10351562 C3.79972331,2.6422526 4.33292643,2.28149414 4.94018555,2.02124023 C5.54744466,1.76098633 6.19807943,1.63085938 6.89208984,1.63085938 C7.5945638,1.63085938 8.24943034,1.76098633 8.85668945,2.02124023 C9.46394857,2.28149414 9.99820964,2.6422526 10.4594727,3.10351562 C10.9207357,3.56477865 11.2814941,4.10009766 11.541748,4.70947266 C11.802002,5.31884766 11.9321289,5.97054036 11.9321289,6.66455078 C11.9363607,7.36279297 11.8072917,8.01660156 11.5449219,8.62597656 C11.2825521,9.23535156 10.9228516,9.76961263 10.4658203,10.2287598 C10.0087891,10.6879069 9.47558594,11.0476074 8.86621094,11.3078613 C8.25683594,11.5681152 7.60091146,11.6982422 6.8984375,11.6982422 Z M6.88574219,9.45751953 C7.04654948,9.45751953 7.17667643,9.40673828 7.27612305,9.30517578 C7.37556966,9.20361328 7.42529297,9.07454427 7.42529297,8.91796875 L7.425,7.205 L9.14550781,7.20410156 C9.3063151,7.20410156 9.43644206,7.15332031 9.53588867,7.05175781 C9.63533529,6.95019531 9.68505859,6.82324219 9.68505859,6.67089844 C9.68505859,6.51009115 9.63533529,6.37890625 9.53588867,6.27734375 C9.43644206,6.17578125 9.3063151,6.125 9.14550781,6.125 L7.425,6.125 L7.42529297,4.41748047 C7.42529297,4.25244141 7.37556966,4.12019857 7.27612305,4.02075195 C7.17667643,3.92130534 7.04654948,3.87158203 6.88574219,3.87158203 C6.72916667,3.87158203 6.60221354,3.92236328 6.50488281,4.02392578 C6.40755208,4.12548828 6.35888672,4.25667318 6.35888672,4.41748047 L6.358,6.125 L4.64501953,6.125 C4.48421224,6.125 4.35302734,6.17578125 4.25146484,6.27734375 C4.14990234,6.37890625 4.09912109,6.51009115 4.09912109,6.67089844 C4.09912109,6.82324219 4.14990234,6.95019531 4.25146484,7.05175781 C4.35302734,7.15332031 4.48421224,7.20410156 4.64501953,7.20410156 L6.358,7.205 L6.35888672,8.91796875 C6.35888672,9.07454427 6.40755208,9.20361328 6.50488281,9.30517578 C6.60221354,9.40673828 6.72916667,9.45751953 6.88574219,9.45751953 Z" id="􀁌" fill="#353F43" fill-rule="nonzero"></path>
    </g>
</svg>