<?xml version="1.0" encoding="UTF-8"?>
<svg width="6px" height="10px" viewBox="0 0 6 10" version="1.1" xmlns="http://www.w3.org/2000/svg" xmlns:xlink="http://www.w3.org/1999/xlink">
    <title>􀯶</title>
    <g id="タスク管理" stroke="none" stroke-width="1" fill="none" fill-rule="evenodd">
        <path d="M5.21386719,9.78955078 C5.3141276,9.78955078 5.4054362,9.76717122 5.48779297,9.72241211 C5.57014974,9.67765299 5.63549805,9.61319987 5.68383789,9.52905273 C5.73217773,9.4449056 5.75634766,9.35449219 5.75634766,9.2578125 C5.75634766,9.1110026 5.70084635,8.98209635 5.58984375,8.87109375 L1.96435547,5.33154297 L5.58984375,1.79199219 C5.70084635,1.68098958 5.75634766,1.55208333 5.75634766,1.40527344 C5.75634766,1.30501302 5.73217773,1.21370443 5.68383789,1.13134766 C5.63549805,1.04899089 5.57014974,0.985432943 5.48779297,0.940673828 C5.4054362,0.895914714 5.3141276,0.873535156 5.21386719,0.873535156 C5.06347656,0.873535156 4.93636068,0.923665365 4.83251953,1.02392578 L0.847167969,4.92871094 C0.782714844,4.9860026 0.737060547,5.04777018 0.710205078,5.11401367 C0.683349609,5.18025716 0.669921875,5.25276693 0.669921875,5.33154297 C0.669921875,5.41031901 0.683349609,5.48282878 0.710205078,5.54907227 C0.737060547,5.61531576 0.782714844,5.67708333 0.847167969,5.734375 L4.83251953,9.63916016 C4.93636068,9.73942057 5.06347656,9.78955078 5.21386719,9.78955078 Z" id="􀯶" fill="#FFFFFF" fill-rule="nonzero"></path>
    </g>
</svg>