<?xml version="1.0" encoding="UTF-8"?>
<svg width="17px" height="16px" viewBox="0 0 17 16" version="1.1" xmlns="http://www.w3.org/2000/svg" xmlns:xlink="http://www.w3.org/1999/xlink">
    <title>calender</title>
    <g id="点検結果一元化" stroke="none" stroke-width="1" fill="none" fill-rule="evenodd">
        <path d="M14.2070312,15.7226562 C15.0917969,15.7226562 15.7597656,15.5 16.2109375,15.0546875 C16.6621094,14.609375 16.8876953,13.9501953 16.8876953,13.0771484 L16.8876953,2.94335938 C16.8876953,2.0703125 16.6621094,1.41113281 16.2109375,0.965820312 C15.7597656,0.520507812 15.0917969,0.297851562 14.2070312,0.297851562 L2.79882812,0.297851562 C1.9140625,0.297851562 1.24609375,0.519042969 0.794921875,0.961425781 C0.34375,1.40380859 0.118164062,2.06445312 0.118164062,2.94335938 L0.118164062,13.0771484 C0.118164062,13.9560547 0.34375,14.6166992 0.794921875,15.059082 C1.24609375,15.5014648 1.9140625,15.7226562 2.79882812,15.7226562 L14.2070312,15.7226562 Z M14.2597656,14.2197266 L2.73730469,14.2197266 C2.37988281,14.2197266 2.10595703,14.1259766 1.91552734,13.9384766 C1.72509766,13.7509766 1.62988281,13.4697266 1.62988281,13.0947266 L1.62988281,5.36035156 C1.62988281,4.98535156 1.72509766,4.70410156 1.91552734,4.51660156 C2.10595703,4.32910156 2.37988281,4.23535156 2.73730469,4.23535156 L14.2597656,4.23535156 C14.6171875,4.23535156 14.8925781,4.32910156 15.0859375,4.51660156 C15.2792969,4.70410156 15.3759766,4.98535156 15.3759766,5.36035156 L15.3759766,13.0947266 C15.3759766,13.4697266 15.2792969,13.7509766 15.0859375,13.9384766 C14.8925781,14.1259766 14.6171875,14.2197266 14.2597656,14.2197266 Z M7.37792969,7.15332031 C7.52441406,7.15332031 7.62695312,7.12695312 7.68554688,7.07421875 C7.74414062,7.02148438 7.7734375,6.921875 7.7734375,6.77539062 L7.7734375,6.28320312 C7.7734375,6.13671875 7.74414062,6.03564453 7.68554688,5.97998047 C7.62695312,5.92431641 7.52441406,5.89648438 7.37792969,5.89648438 L6.88574219,5.89648438 C6.73925781,5.89648438 6.63818359,5.92431641 6.58251953,5.97998047 C6.52685547,6.03564453 6.49902344,6.13671875 6.49902344,6.28320312 L6.49902344,6.77539062 C6.49902344,6.921875 6.52685547,7.02148438 6.58251953,7.07421875 C6.63818359,7.12695312 6.73925781,7.15332031 6.88574219,7.15332031 L7.37792969,7.15332031 Z M10.1113281,7.15332031 C10.2636719,7.15332031 10.3676758,7.12695312 10.4233398,7.07421875 C10.4790039,7.02148438 10.5068359,6.921875 10.5068359,6.77539062 L10.5068359,6.28320312 C10.5068359,6.13671875 10.4790039,6.03564453 10.4233398,5.97998047 C10.3676758,5.92431641 10.2636719,5.89648438 10.1113281,5.89648438 L9.61914062,5.89648438 C9.47265625,5.89648438 9.37158203,5.92431641 9.31591797,5.97998047 C9.26025391,6.03564453 9.23242188,6.13671875 9.23242188,6.28320312 L9.23242188,6.77539062 C9.23242188,6.921875 9.26025391,7.02148438 9.31591797,7.07421875 C9.37158203,7.12695312 9.47265625,7.15332031 9.61914062,7.15332031 L10.1113281,7.15332031 Z M12.8447266,7.15332031 C12.9970703,7.15332031 13.1025391,7.12695312 13.1611328,7.07421875 C13.2197266,7.02148438 13.2490234,6.921875 13.2490234,6.77539062 L13.2490234,6.28320312 C13.2490234,6.13671875 13.2197266,6.03564453 13.1611328,5.97998047 C13.1025391,5.92431641 12.9970703,5.89648438 12.8447266,5.89648438 L12.3613281,5.89648438 C12.2148438,5.89648438 12.1137695,5.92431641 12.0581055,5.97998047 C12.0024414,6.03564453 11.9746094,6.13671875 11.9746094,6.28320312 L11.9746094,6.77539062 C11.9746094,6.921875 12.0024414,7.02148438 12.0581055,7.07421875 C12.1137695,7.12695312 12.2148438,7.15332031 12.3613281,7.15332031 L12.8447266,7.15332031 Z M4.63574219,9.8515625 C4.78222656,9.8515625 4.88623047,9.82373047 4.94775391,9.76806641 C5.00927734,9.71240234 5.04003906,9.61132812 5.04003906,9.46484375 L5.04003906,8.98144531 C5.04003906,8.83496094 5.00927734,8.73535156 4.94775391,8.68261719 C4.88623047,8.62988281 4.78222656,8.60351562 4.63574219,8.60351562 L4.15234375,8.60351562 C4.00585938,8.60351562 3.90478516,8.62988281 3.84912109,8.68261719 C3.79345703,8.73535156 3.765625,8.83496094 3.765625,8.98144531 L3.765625,9.46484375 C3.765625,9.61132812 3.79345703,9.71240234 3.84912109,9.76806641 C3.90478516,9.82373047 4.00585938,9.8515625 4.15234375,9.8515625 L4.63574219,9.8515625 Z M7.37792969,9.8515625 C7.52441406,9.8515625 7.62695312,9.82373047 7.68554688,9.76806641 C7.74414062,9.71240234 7.7734375,9.61132812 7.7734375,9.46484375 L7.7734375,8.98144531 C7.7734375,8.83496094 7.74414062,8.73535156 7.68554688,8.68261719 C7.62695312,8.62988281 7.52441406,8.60351562 7.37792969,8.60351562 L6.88574219,8.60351562 C6.73925781,8.60351562 6.63818359,8.62988281 6.58251953,8.68261719 C6.52685547,8.73535156 6.49902344,8.83496094 6.49902344,8.98144531 L6.49902344,9.46484375 C6.49902344,9.61132812 6.52685547,9.71240234 6.58251953,9.76806641 C6.63818359,9.82373047 6.73925781,9.8515625 6.88574219,9.8515625 L7.37792969,9.8515625 Z M10.1113281,9.8515625 C10.2636719,9.8515625 10.3676758,9.82373047 10.4233398,9.76806641 C10.4790039,9.71240234 10.5068359,9.61132812 10.5068359,9.46484375 L10.5068359,8.98144531 C10.5068359,8.83496094 10.4790039,8.73535156 10.4233398,8.68261719 C10.3676758,8.62988281 10.2636719,8.60351562 10.1113281,8.60351562 L9.61914062,8.60351562 C9.47265625,8.60351562 9.37158203,8.62988281 9.31591797,8.68261719 C9.26025391,8.73535156 9.23242188,8.83496094 9.23242188,8.98144531 L9.23242188,9.46484375 C9.23242188,9.61132812 9.26025391,9.71240234 9.31591797,9.76806641 C9.37158203,9.82373047 9.47265625,9.8515625 9.61914062,9.8515625 L10.1113281,9.8515625 Z M12.8447266,9.8515625 C12.9970703,9.8515625 13.1025391,9.82373047 13.1611328,9.76806641 C13.2197266,9.71240234 13.2490234,9.61132812 13.2490234,9.46484375 L13.2490234,8.98144531 C13.2490234,8.83496094 13.2197266,8.73535156 13.1611328,8.68261719 C13.1025391,8.62988281 12.9970703,8.60351562 12.8447266,8.60351562 L12.3613281,8.60351562 C12.2148438,8.60351562 12.1137695,8.62988281 12.0581055,8.68261719 C12.0024414,8.73535156 11.9746094,8.83496094 11.9746094,8.98144531 L11.9746094,9.46484375 C11.9746094,9.61132812 12.0024414,9.71240234 12.0581055,9.76806641 C12.1137695,9.82373047 12.2148438,9.8515625 12.3613281,9.8515625 L12.8447266,9.8515625 Z M4.63574219,12.5498047 C4.78222656,12.5498047 4.88623047,12.5219727 4.94775391,12.4663086 C5.00927734,12.4106445 5.04003906,12.3095703 5.04003906,12.1630859 L5.04003906,11.6708984 C5.04003906,11.5244141 5.00927734,11.4248047 4.94775391,11.3720703 C4.88623047,11.3193359 4.78222656,11.2929688 4.63574219,11.2929688 L4.15234375,11.2929688 C4.00585938,11.2929688 3.90478516,11.3193359 3.84912109,11.3720703 C3.79345703,11.4248047 3.765625,11.5244141 3.765625,11.6708984 L3.765625,12.1630859 C3.765625,12.3095703 3.79345703,12.4106445 3.84912109,12.4663086 C3.90478516,12.5219727 4.00585938,12.5498047 4.15234375,12.5498047 L4.63574219,12.5498047 Z M7.37792969,12.5498047 C7.52441406,12.5498047 7.62695312,12.5219727 7.68554688,12.4663086 C7.74414062,12.4106445 7.7734375,12.3095703 7.7734375,12.1630859 L7.7734375,11.6708984 C7.7734375,11.5244141 7.74414062,11.4248047 7.68554688,11.3720703 C7.62695312,11.3193359 7.52441406,11.2929688 7.37792969,11.2929688 L6.88574219,11.2929688 C6.73925781,11.2929688 6.63818359,11.3193359 6.58251953,11.3720703 C6.52685547,11.4248047 6.49902344,11.5244141 6.49902344,11.6708984 L6.49902344,12.1630859 C6.49902344,12.3095703 6.52685547,12.4106445 6.58251953,12.4663086 C6.63818359,12.5219727 6.73925781,12.5498047 6.88574219,12.5498047 L7.37792969,12.5498047 Z M10.1113281,12.5498047 C10.2636719,12.5498047 10.3676758,12.5219727 10.4233398,12.4663086 C10.4790039,12.4106445 10.5068359,12.3095703 10.5068359,12.1630859 L10.5068359,11.6708984 C10.5068359,11.5244141 10.4790039,11.4248047 10.4233398,11.3720703 C10.3676758,11.3193359 10.2636719,11.2929688 10.1113281,11.2929688 L9.61914062,11.2929688 C9.47265625,11.2929688 9.37158203,11.3193359 9.31591797,11.3720703 C9.26025391,11.4248047 9.23242188,11.5244141 9.23242188,11.6708984 L9.23242188,12.1630859 C9.23242188,12.3095703 9.26025391,12.4106445 9.31591797,12.4663086 C9.37158203,12.5219727 9.47265625,12.5498047 9.61914062,12.5498047 L10.1113281,12.5498047 Z" id="calender" fill="#FFB200" fill-rule="nonzero"></path>
    </g>
</svg>