<?xml version="1.0" encoding="UTF-8"?>
<svg width="11px" height="11px" viewBox="0 0 11 11" version="1.1" xmlns="http://www.w3.org/2000/svg" xmlns:xlink="http://www.w3.org/1999/xlink">
    <title>cancel</title>
    <g id="点検結果一元化" stroke="none" stroke-width="1" fill="none" fill-rule="evenodd">
        <path d="M5.29833975,10.5522461 C6.01448558,10.5522461 6.68766267,10.4152832 7.317871,10.1413574 C7.94807933,9.86743164 8.50309235,9.4905599 8.98291006,9.01074219 C9.46272777,8.53092448 9.83870433,7.97680664 10.1108398,7.34838867 C10.3829752,6.7199707 10.5190429,6.0476888 10.5190429,5.33154297 C10.5190429,4.61539714 10.3829752,3.94311523 10.1108398,3.31469727 C9.83870433,2.6862793 9.46183259,2.13126628 8.98022452,1.6496582 C8.49861644,1.16805013 7.94270824,0.791178385 7.31249991,0.519042969 C6.68229157,0.246907552 6.00911449,0.110839844 5.29296866,0.110839844 C4.58398428,0.110839844 3.91438793,0.246907552 3.28417959,0.519042969 C2.65397126,0.791178385 2.09806306,1.16805013 1.61645498,1.6496582 C1.13484691,2.13126628 0.757975167,2.6862793 0.48583975,3.31469727 C0.213704333,3.94311523 0.077636625,4.61539714 0.077636625,5.33154297 C0.077636625,6.0476888 0.214599516,6.7199707 0.488525297,7.34838867 C0.762451078,7.97680664 1.13932282,8.53092448 1.61914053,9.01074219 C2.09895824,9.4905599 2.65397126,9.86743164 3.28417959,10.1413574 C3.91438793,10.4152832 4.58577465,10.5522461 5.29833975,10.5522461 Z M5.29833975,9.59082031 C4.71110017,9.59082031 4.15966788,9.48071289 3.64404288,9.26049805 C3.12841788,9.0402832 2.67635082,8.73592122 2.2878417,8.34741211 C1.89933259,7.95890299 1.59586579,7.50683594 1.37744131,6.99121094 C1.15901683,6.47558594 1.04980459,5.92236328 1.04980459,5.33154297 C1.04980459,4.74430339 1.15901683,4.19287109 1.37744131,3.67724609 C1.59586579,3.16162109 1.89933259,2.70865885 2.2878417,2.31835938 C2.67635082,1.9280599 3.12752269,1.62280273 3.64135733,1.40258789 C4.15519196,1.18237305 4.70572907,1.07226562 5.29296866,1.07226562 C5.8873697,1.07226562 6.44148754,1.18237305 6.95532217,1.40258789 C7.46915681,1.62280273 7.92122386,1.9280599 8.31152334,2.31835938 C8.70182282,2.70865885 9.00707998,3.16162109 9.22729483,3.67724609 C9.44750967,4.19287109 9.55761709,4.74430339 9.55761709,5.33154297 C9.56119782,5.92236328 9.45198558,6.47558594 9.22998038,6.99121094 C9.00797517,7.50683594 8.70361319,7.95890299 8.31689444,8.34741211 C7.93017569,8.73592122 7.47900381,9.0402832 6.96337881,9.26049805 C6.44775381,9.48071289 5.89274079,9.59082031 5.29833975,9.59082031 Z M7.00097647,7.47460938 C7.11914053,7.47460938 7.22119131,7.43164062 7.30712881,7.34570312 C7.39306631,7.25976562 7.43603506,7.15771484 7.43603506,7.03955078 C7.43603506,6.92138672 7.39306631,6.81754557 7.30712881,6.72802734 L5.92138662,5.34228516 L7.31249991,3.94580078 C7.39843741,3.85986328 7.44140616,3.75960286 7.44140616,3.64501953 C7.44140616,3.52327474 7.39843741,3.42032878 7.31249991,3.33618164 C7.22656241,3.25203451 7.12451162,3.20996094 7.00634756,3.20996094 C6.89176423,3.20996094 6.78792308,3.25292969 6.69482412,3.33886719 L5.29833975,4.72998047 L3.90722647,3.34423828 C3.8248697,3.26188151 3.72460928,3.22070312 3.60644522,3.22070312 C3.4811197,3.22070312 3.37638337,3.26188151 3.29223623,3.34423828 C3.2080891,3.42659505 3.16601553,3.52685547 3.16601553,3.64501953 C3.16601553,3.76676432 3.21077465,3.8688151 3.30029288,3.95117188 L4.68603506,5.34228516 L3.30029288,6.73339844 C3.21077465,6.81575521 3.16601553,6.91780599 3.16601553,7.03955078 C3.16601553,7.15771484 3.2080891,7.25976562 3.29223623,7.34570312 C3.37638337,7.43164062 3.4811197,7.47460938 3.60644522,7.47460938 C3.73177074,7.47460938 3.83561189,7.43164062 3.91796866,7.34570312 L5.29833975,5.95996094 L6.68408194,7.34570312 C6.77360017,7.43164062 6.87923168,7.47460938 7.00097647,7.47460938 Z" id="cancel" fill="#FFFFFF" fill-rule="nonzero"></path>
    </g>
</svg>