<?xml version="1.0" encoding="UTF-8"?>
<svg width="8px" height="8px" viewBox="0 0 8 8" version="1.1" xmlns="http://www.w3.org/2000/svg" xmlns:xlink="http://www.w3.org/1999/xlink">
    <title>check</title>
    <g id="タスク管理" stroke="none" stroke-width="1" fill="none" fill-rule="evenodd">
        <path d="M3.49804688,7.18994141 C3.69726562,7.18994141 3.85400391,7.10644531 3.96826172,6.93945312 L7.88378906,0.8046875 C7.92480469,0.740234375 7.95483398,0.680175781 7.97387695,0.624511719 C7.99291992,0.568847656 8.00244141,0.516113281 8.00244141,0.466308594 C8.00244141,0.334472656 7.96142578,0.227539062 7.87939453,0.145507812 C7.79736328,0.0634765625 7.69042969,0.0224609375 7.55859375,0.0224609375 C7.46484375,0.0224609375 7.38720703,0.0407714844 7.32568359,0.0773925781 C7.26416016,0.114013672 7.20263672,0.177734375 7.14111328,0.268554688 L3.48486328,6.09130859 L1.59082031,3.64355469 C1.48242188,3.49707031 1.34912109,3.42382812 1.19091797,3.42382812 C1.05615234,3.42382812 0.945556641,3.46630859 0.859130859,3.55126953 C0.772705078,3.63623047 0.729492188,3.74462891 0.729492188,3.87646484 C0.729492188,3.93212891 0.740478516,3.98925781 0.762451172,4.04785156 C0.784423828,4.10644531 0.8203125,4.16503906 0.870117188,4.22363281 L3.01904297,6.93945312 C3.15673828,7.10644531 3.31640625,7.18994141 3.49804688,7.18994141 Z" id="check" fill="#FFB200" fill-rule="nonzero"></path>
    </g>
</svg>