<?xml version="1.0" encoding="UTF-8"?>
<svg width="11px" height="11px" viewBox="0 0 11 11" version="1.1" xmlns="http://www.w3.org/2000/svg" xmlns:xlink="http://www.w3.org/1999/xlink">
    <title>done</title>
    <g id="点検結果一元化" stroke="none" stroke-width="1" fill="none" fill-rule="evenodd">
        <path d="M5.79833975,10.5522461 C6.51448558,10.5522461 7.18766267,10.4152832 7.817871,10.1413574 C8.44807933,9.86743164 9.00309235,9.4905599 9.48291006,9.01074219 C9.9627278,8.53092448 10.3387043,7.97680664 10.6108398,7.34838867 C10.8829752,6.7199707 11.0190429,6.0476888 11.0190429,5.33154297 C11.0190429,4.61539714 10.8829752,3.94311523 10.6108398,3.31469727 C10.3387043,2.6862793 9.9618326,2.13126628 9.48022452,1.6496582 C8.99861644,1.16805013 8.44270824,0.791178385 7.81249991,0.519042969 C7.18229157,0.246907552 6.50911449,0.110839844 5.79296866,0.110839844 C5.08398428,0.110839844 4.41438793,0.246907552 3.78417959,0.519042969 C3.15397126,0.791178385 2.59806306,1.16805013 2.11645498,1.6496582 C1.63484691,2.13126628 1.25797517,2.6862793 0.98583975,3.31469727 C0.713704333,3.94311523 0.577636625,4.61539714 0.577636625,5.33154297 C0.577636625,6.0476888 0.714599516,6.7199707 0.9885253,7.34838867 C1.26245108,7.97680664 1.63932282,8.53092448 2.11914053,9.01074219 C2.59895824,9.4905599 3.15397126,9.86743164 3.78417959,10.1413574 C4.41438793,10.4152832 5.08577465,10.5522461 5.79833975,10.5522461 Z M5.79833975,9.59082031 C5.21110017,9.59082031 4.65966788,9.48071289 4.14404288,9.26049805 C3.62841788,9.0402832 3.17635082,8.73592122 2.7878417,8.34741211 C2.39933259,7.95890299 2.09586579,7.50683594 1.87744131,6.99121094 C1.65901683,6.47558594 1.54980459,5.92236328 1.54980459,5.33154297 C1.54980459,4.74430339 1.65901683,4.19287109 1.87744131,3.67724609 C2.09586579,3.16162109 2.39933259,2.70865885 2.7878417,2.31835938 C3.17635082,1.9280599 3.62752269,1.62280273 4.14135733,1.40258789 C4.65519196,1.18237305 5.20572907,1.07226562 5.79296866,1.07226562 C6.3873697,1.07226562 6.94148754,1.18237305 7.45532217,1.40258789 C7.96915681,1.62280273 8.42122386,1.9280599 8.81152334,2.31835938 C9.20182282,2.70865885 9.50707998,3.16162109 9.72729483,3.67724609 C9.9475097,4.19287109 10.0576171,4.74430339 10.0576171,5.33154297 C10.0611978,5.92236328 9.9519856,6.47558594 9.72998038,6.99121094 C9.50797517,7.50683594 9.20361319,7.95890299 8.81689444,8.34741211 C8.43017569,8.73592122 7.97900381,9.0402832 7.46337881,9.26049805 C6.94775381,9.48071289 6.39274079,9.59082031 5.79833975,9.59082031 Z M5.24511709,7.74853516 C5.42773428,7.74853516 5.57275381,7.66438802 5.68017569,7.49609375 L7.989746,3.89208984 C8.01839183,3.83837891 8.04614248,3.7828776 8.07299795,3.72558594 C8.09985342,3.66829427 8.11328116,3.6110026 8.11328116,3.55371094 C8.11328116,3.43554688 8.06762686,3.33976237 7.97631827,3.26635742 C7.88500967,3.19295247 7.78385407,3.15625 7.67285147,3.15625 C7.52246084,3.15625 7.39534496,3.23860677 7.29150381,3.40332031 L5.22900381,6.70117188 L4.26220694,5.45507812 C4.20133454,5.37988281 4.13956696,5.32706706 4.0769042,5.29663086 C4.01424144,5.26619466 3.94710277,5.25097656 3.87548819,5.25097656 C3.7537434,5.25097656 3.6525878,5.29305013 3.57202139,5.37719727 C3.49145498,5.4613444 3.45117178,5.5625 3.45117178,5.68066406 C3.45117178,5.79166667 3.49414053,5.90266927 3.58007803,6.01367188 L4.79394522,7.49609375 C4.86197907,7.58561198 4.93180329,7.6500651 5.00341788,7.68945312 C5.07503246,7.72884115 5.15559886,7.74853516 5.24511709,7.74853516 Z" id="done" fill="#FFFFFF" fill-rule="nonzero"></path>
    </g>
</svg>