<?xml version="1.0" encoding="UTF-8"?>
<svg width="12px" height="7px" viewBox="0 0 12 7" version="1.1" xmlns="http://www.w3.org/2000/svg" xmlns:xlink="http://www.w3.org/1999/xlink">
    <title>down_arrow</title>
    <defs>
        <path d="M6.255371,6.83105469 C6.35563142,6.83105469 6.45019522,6.81282552 6.53906241,6.77636719 C6.62792959,6.73990885 6.70654287,6.68066406 6.77490225,6.59863281 L11.7377929,1.52636719 C11.8745116,1.39420573 11.942871,1.23470052 11.942871,1.04785156 C11.942871,0.920247396 11.9121093,0.804036458 11.8505858,0.69921875 C11.7890624,0.594401042 11.7070312,0.511230469 11.6044921,0.449707031 C11.501953,0.388183594 11.3846028,0.357421875 11.2524413,0.357421875 C11.0655924,0.357421875 10.9015299,0.42578125 10.7602538,0.5625 L6.258246,5.173 L1.75048819,0.5625 C1.61376944,0.42578125 1.45198558,0.357421875 1.26513662,0.357421875 C1.13297517,0.357421875 1.01562491,0.388183594 0.913085844,0.449707031 C0.810546781,0.511230469 0.728515531,0.594401042 0.666992094,0.69921875 C0.605468656,0.804036458 0.574706937,0.920247396 0.574706937,1.04785156 C0.574706937,1.14355469 0.592936104,1.23128255 0.629394437,1.31103516 C0.665852771,1.39078776 0.715982979,1.4625651 0.779785062,1.52636719 L5.73583975,6.60546875 C5.89078767,6.75585938 6.06396475,6.83105469 6.255371,6.83105469 Z" id="path-1"></path>
    </defs>
    <g id="点検結果一元化" stroke="none" stroke-width="1" fill="none" fill-rule="evenodd">
        <g id="down_arrow" fill-rule="nonzero">
            <use fill="#000000" xlink:href="#path-1"></use>
            <use fill="#FFB200" xlink:href="#path-1"></use>
        </g>
    </g>
</svg>