<?xml version="1.0" encoding="UTF-8"?>
<svg width="10px" height="12px" viewBox="0 0 10 12" version="1.1" xmlns="http://www.w3.org/2000/svg" xmlns:xlink="http://www.w3.org/1999/xlink">
    <title>download</title>
    <g id="タスク管理" stroke="none" stroke-width="1" fill="none" fill-rule="evenodd">
        <path d="M4.8737793,8.39941406 C4.93107096,8.39941406 4.98567708,8.38867188 5.03759766,8.3671875 C5.08951823,8.34570312 5.14591471,8.3063151 5.20678711,8.24902344 L6.91479492,6.60009766 C7.00073242,6.51416016 7.04370117,6.41748047 7.04370117,6.31005859 C7.04370117,6.19905599 7.00431315,6.1077474 6.92553711,6.03613281 C6.84676107,5.96451823 6.75366211,5.92871094 6.64624023,5.92871094 C6.52091471,5.92871094 6.4206543,5.97347005 6.34545898,6.06298828 L5.60961914,6.84179688 L5.27124023,7.21240234 L5.31420898,6.45507812 L5.31420898,1.1484375 C5.31420898,1.03385417 5.27124023,0.932698568 5.18530273,0.844970703 C5.09936523,0.757242839 4.99552409,0.713378906 4.8737793,0.713378906 C4.75203451,0.713378906 4.64819336,0.757242839 4.56225586,0.844970703 C4.47631836,0.932698568 4.43334961,1.03385417 4.43334961,1.1484375 L4.43334961,6.45507812 L4.47631836,7.21777344 L4.13793945,6.84179688 L3.40209961,6.06298828 C3.32332357,5.97347005 3.22306315,5.92871094 3.10131836,5.92871094 C2.99031576,5.92871094 2.89632161,5.96451823 2.81933594,6.03613281 C2.74235026,6.1077474 2.70385742,6.19905599 2.70385742,6.31005859 C2.70385742,6.41748047 2.74682617,6.51416016 2.83276367,6.60009766 L4.54077148,8.24902344 C4.60164388,8.3063151 4.65804036,8.34570312 4.70996094,8.3671875 C4.76188151,8.38867188 4.81648763,8.39941406 4.8737793,8.39941406 Z M7.7902832,11.7080078 C8.33455404,11.7080078 8.74365234,11.5719401 9.01757812,11.2998047 C9.29150391,11.0276693 9.4284668,10.6248372 9.4284668,10.0913086 L9.4284668,5.06396484 C9.4284668,4.5304362 9.29150391,4.12670898 9.01757812,3.8527832 C8.74365234,3.57885742 8.33455404,3.44189453 7.7902832,3.44189453 L6.39916992,3.44189453 L6.39916992,4.36572266 L7.75268555,4.36572266 C7.9925944,4.36572266 8.17879232,4.4292806 8.3112793,4.55639648 C8.44376628,4.68351237 8.51000977,4.8741862 8.51000977,5.12841797 L8.51000977,10.0268555 C8.51000977,10.2775065 8.44376628,10.46639 8.3112793,10.5935059 C8.17879232,10.7206217 7.9925944,10.7841797 7.75268555,10.7841797 L1.98950195,10.7841797 C1.7495931,10.7841797 1.56429036,10.7206217 1.43359375,10.5935059 C1.30289714,10.46639 1.23754883,10.2775065 1.23754883,10.0268555 L1.23754883,5.12841797 C1.23754883,4.8741862 1.30289714,4.68351237 1.43359375,4.55639648 C1.56429036,4.4292806 1.7495931,4.36572266 1.98950195,4.36572266 L3.34838867,4.36572266 L3.34838867,3.44189453 L1.9519043,3.44189453 C1.41121419,3.44189453 1.00301107,3.57796224 0.727294922,3.85009766 C0.451578776,4.12223307 0.313720703,4.52685547 0.313720703,5.06396484 L0.313720703,10.0913086 C0.313720703,10.6248372 0.451578776,11.0276693 0.727294922,11.2998047 C1.00301107,11.5719401 1.41121419,11.7080078 1.9519043,11.7080078 L7.7902832,11.7080078 Z" id="download" fill="#FFFFFF" fill-rule="nonzero"></path>
    </g>
</svg>