<?xml version="1.0" encoding="UTF-8"?>
<svg width="14px" height="14px" viewBox="0 0 14 14" version="1.1" xmlns="http://www.w3.org/2000/svg" xmlns:xlink="http://www.w3.org/1999/xlink">
    <title>expand_arrow</title>
    <g id="点検結果一元化" stroke="none" stroke-width="1" fill="none" fill-rule="evenodd">
        <path d="M6.72705069,13.9755859 C7.63850902,13.9755859 8.49527985,13.8012695 9.29736319,13.4526367 C10.0994465,13.1040039 10.8058267,12.624349 11.4165038,12.0136719 C12.0271809,11.4029948 12.5056965,10.6977539 12.8520507,9.89794922 C13.1984049,9.09814453 13.3715819,8.24251302 13.3715819,7.33105469 C13.3715819,6.41959635 13.1984049,5.56396484 12.8520507,4.76416016 C12.5056965,3.96435547 12.0260416,3.25797526 11.4130858,2.64501953 C10.8001301,2.0320638 10.0926106,1.55240885 9.29052725,1.20605469 C8.48844392,0.859700521 7.63167308,0.686523438 6.72021475,0.686523438 C5.817871,0.686523438 4.96565746,0.859700521 4.16357412,1.20605469 C3.36149079,1.55240885 2.65397126,2.0320638 2.04101553,2.64501953 C1.4280598,3.25797526 0.94840485,3.96435547 0.602050688,4.76416016 C0.255696521,5.56396484 0.082519438,6.41959635 0.082519438,7.33105469 C0.082519438,8.24251302 0.256835844,9.09814453 0.605468656,9.89794922 C0.95410147,10.6977539 1.43375642,11.4029948 2.0444335,12.0136719 C2.65511058,12.624349 3.36149079,13.1040039 4.16357412,13.4526367 C4.96565746,13.8012695 5.82014965,13.9755859 6.72705069,13.9755859 Z M6.72705069,12.7519531 C5.97965485,12.7519531 5.27783194,12.6118164 4.62158194,12.331543 C3.96533194,12.0512695 3.38997386,11.6638997 2.89550772,11.1694336 C2.40104157,10.6749674 2.0148111,10.0996094 1.73681631,9.44335938 C1.45882152,8.78710938 1.31982412,8.08300781 1.31982412,7.33105469 C1.31982412,6.58365885 1.45882152,5.88183594 1.73681631,5.22558594 C2.0148111,4.56933594 2.40104157,3.99283854 2.89550772,3.49609375 C3.38997386,2.99934896 3.96419261,2.61083984 4.61816397,2.33056641 C5.27213532,2.05029297 5.97281892,1.91015625 6.72021475,1.91015625 C7.47672517,1.91015625 8.18196605,2.05029297 8.83593741,2.33056641 C9.48990876,2.61083984 10.0652668,2.99934896 10.5620116,3.49609375 C11.0587564,3.99283854 11.4472655,4.56933594 11.727539,5.22558594 C12.0078124,5.88183594 12.1479491,6.58365885 12.1479491,7.33105469 C12.1525064,8.08300781 12.013509,8.78710938 11.7309569,9.44335938 C11.4484049,10.0996094 11.0610351,10.6749674 10.5688476,11.1694336 C10.0766601,11.6638997 9.50244131,12.0512695 8.84619131,12.331543 C8.18994131,12.6118164 7.4835611,12.7519531 6.72705069,12.7519531 Z M6.94921866,9.69970703 C7.10188793,9.65185547 7.24886058,9.55273438 7.39013662,9.40234375 L9.89208975,6.75 C9.9923502,6.640625 10.044759,6.51416016 10.0493163,6.37060547 C10.0538736,6.22705078 10.0083007,6.10742188 9.91259756,6.01171875 C9.80322256,5.91145833 9.67675772,5.85904948 9.53320303,5.85449219 C9.38964834,5.8499349 9.27001944,5.9000651 9.17431631,6.00488281 L6.72021475,8.60253906 L4.27294912,6.00488281 C4.177246,5.9000651 4.05647777,5.84879557 3.91064444,5.85107422 C3.7648111,5.85335286 3.63948558,5.90690104 3.53466787,6.01171875 C3.44352204,6.11197917 3.39908845,6.23160807 3.40136709,6.37060547 C3.40364574,6.50960286 3.45263662,6.63606771 3.54833975,6.75 L6.05712881,9.40234375 C6.19384756,9.55273438 6.33854157,9.65185547 6.49121084,9.69970703 C6.64388011,9.74755859 6.79654939,9.74755859 6.94921866,9.69970703 Z" id="expand_arrow" fill="#FFB200" fill-rule="nonzero"></path>
    </g>
</svg>