<?xml version="1.0" encoding="UTF-8"?>
<svg width="13px" height="13px" viewBox="0 0 13 13" version="1.1" xmlns="http://www.w3.org/2000/svg" xmlns:xlink="http://www.w3.org/1999/xlink">
    <title>globe</title>
    <defs>
        <path d="M6.48144178,12.8344727 C7.32779595,12.8344727 8.12336886,12.6726074 8.86816053,12.348877 C9.6129522,12.0251465 10.2688767,11.5797526 10.835934,11.0126953 C11.4029913,10.445638 11.8473272,9.79077148 12.1689418,9.0480957 C12.4905564,8.30541992 12.6513637,7.51090495 12.6513637,6.66455078 C12.6513637,5.81819661 12.4905564,5.02368164 12.1689418,4.28100586 C11.8473272,3.53833008 11.4019333,2.8824056 10.8327601,2.31323242 C10.263587,1.74405924 9.60660454,1.29866536 8.86181287,0.977050781 C8.11702121,0.655436198 7.32144829,0.494628906 6.47509412,0.494628906 C5.6372035,0.494628906 4.84586235,0.655436198 4.10107069,0.977050781 C3.35627902,1.29866536 2.6992966,1.74405924 2.13012342,2.31323242 C1.56095024,2.8824056 1.11555636,3.53833008 0.793941781,4.28100586 C0.472327198,5.02368164 0.311519906,5.81819661 0.311519906,6.66455078 C0.311519906,7.51090495 0.473385141,8.30541992 0.797115609,9.0480957 C1.12084608,9.79077148 1.56623996,10.445638 2.13329725,11.0126953 C2.70035454,11.5797526 3.35627902,12.0251465 4.10107069,12.348877 C4.84586235,12.6726074 5.63931939,12.8344727 6.48144178,12.8344727 Z M3.967766,3.365 L3.94085584,3.35691406 C3.86231418,3.33101562 3.78559217,3.30367839 3.71068983,3.27490234 C3.41108045,3.15979818 3.14600233,3.02573568 2.91545545,2.87271484 L2.878766,2.847 L2.98109799,2.74908323 C3.41610676,2.35786033 3.90474675,2.04436384 4.44701795,1.80859375 C4.62777502,1.73000372 4.81207296,1.66264084 4.99991177,1.6065051 L5.021766,1.601 L4.98974256,1.63280254 C4.74490439,1.88541335 4.52273642,2.19685872 4.32323866,2.56713867 C4.2301397,2.73993598 4.14385859,2.92284252 4.06439534,3.11585829 L3.967766,3.365 Z M9.000766,3.367 L8.90377794,3.11585829 C8.82360939,2.92284252 8.73662299,2.73993598 8.64281873,2.56713867 C8.44180962,2.19685872 8.21867007,1.88541335 7.97340009,1.63280254 L7.941766,1.603 L7.95772526,1.6065051 C8.14634133,1.66264084 8.33133017,1.73000372 8.51269178,1.80859375 C9.0567766,2.04436384 9.54645294,2.35786033 9.9817208,2.74908323 L10.084766,2.848 L10.0498402,2.87271484 C9.82234022,3.02573568 9.55963189,3.15979818 9.26171522,3.27490234 L9.03256483,3.35691406 L9.03256483,3.35691406 L9.000766,3.367 Z M6.893766,3.699 L6.893766,1.781 L6.973709,1.81856864 C7.09288949,1.88385882 7.20915523,1.97363281 7.32250623,2.08789062 C7.58699191,2.35449219 7.82291314,2.71948242 8.03026991,3.18286133 L8.14947889,3.46901367 L8.14947889,3.46901367 L8.183766,3.568 L8.00170545,3.59863281 L8.00170545,3.59863281 C7.76790011,3.63460286 7.52430881,3.6615804 7.27093153,3.67956543 L6.893766,3.699 Z M6.074766,3.7 L5.69750623,3.67956543 C5.44571587,3.6615804 5.20344699,3.63460286 4.97069959,3.59863281 L4.777766,3.566 L4.81340467,3.46901367 C4.85140597,3.37092122 4.8911423,3.27553711 4.93261366,3.18286133 C5.13997043,2.71948242 5.37800754,2.35449219 5.64672498,2.08789062 C5.7618896,1.97363281 5.87880307,1.88385882 5.99746538,1.81856864 L6.074766,1.782 L6.074766,3.7 Z M3.441766,6.259 L1.234766,6.259 L1.2526571,6.05828484 C1.30836103,5.56169948 1.43369485,5.0867048 1.62865858,4.63330078 C1.78462956,4.27057757 1.97549106,3.9320359 2.20124308,3.61767578 L2.335766,3.441 L2.50171522,3.55800781 C2.70890272,3.69511719 2.94579725,3.82080078 3.21239881,3.93505859 L3.48585584,4.04398438 L3.48585584,4.04398438 L3.733766,4.13 L3.66943006,4.39526367 L3.66943006,4.39526367 C3.56504638,4.86216905 3.49545726,5.35587565 3.4606627,5.87638346 L3.441766,6.259 Z M11.732766,6.259 L9.532766,6.259 L9.51456353,5.87638346 C9.47929877,5.35587565 9.40876926,4.86216905 9.30297498,4.39526367 L9.236766,4.129 L9.48337537,4.04398438 C9.57681287,4.00945313 9.66796522,3.97314453 9.75683241,3.93505859 C10.0530564,3.80810547 10.3116646,3.66704644 10.5326571,3.51188151 L10.626766,3.441 L10.7622234,3.61767578 C10.9884936,3.9320359 11.1802188,4.27057757 11.3373988,4.63330078 C11.5338739,5.0867048 11.6601793,5.56169948 11.716315,6.05828484 L11.732766,6.259 Z M6.074766,6.259 L4.267766,6.259 L4.28870741,5.89166016 C4.31765272,5.50724609 4.36830702,5.13540039 4.4406703,4.77612305 L4.51823866,4.4249707 L4.51823866,4.4249707 L4.540766,4.338 L4.71679334,4.37304688 L4.71679334,4.37304688 C5.05194959,4.43398437 5.39776991,4.47664062 5.75425428,4.50101563 L6.074766,4.518 L6.074766,6.259 Z M8.694766,6.259 L6.893766,6.259 L6.893766,4.518 L7.21269178,4.50101563 C7.57069959,4.47664062 7.91728162,4.43398437 8.25243787,4.37304688 L8.420766,4.339 L8.44464491,4.4249707 C8.47223605,4.53931315 8.49809217,4.65636393 8.52221327,4.77612305 C8.59457655,5.13540039 8.64523084,5.50724609 8.67417616,5.89166016 L8.694766,6.259 Z M2.345766,9.908 L2.20124308,9.71615414 C1.97549106,9.40196674 1.78462956,9.0629069 1.62865858,8.69897461 C1.43369485,8.24405924 1.30836103,7.76809298 1.2526571,7.27107581 L1.234766,7.071 L3.440766,7.071 L3.44109076,7.08252631 C3.46283736,7.74932409 3.53895046,8.37277561 3.66943006,8.95288086 L3.736766,9.229 L3.48585584,9.31469727 C3.39241834,9.34897461 3.301266,9.38494466 3.21239881,9.42260742 C2.91617485,9.54814996 2.65662624,9.68826859 2.43375298,9.84296332 L2.345766,9.908 Z M4.546766,9.02 L4.51823866,8.91047852 C4.49064751,8.79613607 4.46479139,8.67908529 4.4406703,8.55932617 C4.36830702,8.20004883 4.31765272,7.83048828 4.28870741,7.45064453 L4.266766,7.071 L6.074766,7.071 L6.074766,8.838 L5.75425428,8.85398437 C5.39776991,8.87886719 5.05194959,8.92241211 4.71679334,8.98461914 L4.546766,9.02 Z M8.415766,9.018 L8.25243787,8.98461914 L8.25243787,8.98461914 C7.91728162,8.92241211 7.57069959,8.87886719 7.21269178,8.85398437 L6.893766,8.838 L6.893766,7.071 L8.695766,7.071 L8.67417616,7.45064453 C8.64523084,7.83048828 8.59457655,8.20004883 8.52221327,8.55932617 L8.44464491,8.91047852 L8.44464491,8.91047852 L8.415766,9.018 Z M10.617766,9.907 L10.5326571,9.84296332 C10.3116646,9.68826859 10.0530564,9.54814996 9.75683241,9.42260742 L9.48337537,9.31469727 L9.48337537,9.31469727 L9.229766,9.229 L9.29980116,8.95288086 L9.29980116,8.95288086 C9.43380723,8.37277561 9.51197744,7.74932409 9.53431179,7.08252631 L9.533766,7.071 L11.732766,7.071 L11.716315,7.27107581 C11.6601793,7.76809298 11.5338739,8.24405924 11.3373988,8.69897461 C11.1802188,9.0629069 10.9888391,9.40196674 10.7632598,9.71615414 L10.617766,9.907 Z M6.074766,11.555 L5.99746538,11.5168806 C5.87880307,11.4515904 5.7618896,11.3618164 5.64672498,11.2475586 C5.37800754,10.980957 5.13997043,10.6159668 4.93261366,10.1525879 L4.81340467,9.86643555 L4.81340467,9.86643555 L4.785766,9.792 L4.96752577,9.7590332 L4.96752577,9.7590332 C5.2013311,9.72200521 5.44439344,9.69423421 5.69671278,9.67572021 L6.074766,9.655 L6.074766,11.555 Z M6.893766,11.555 L6.893766,9.657 L7.11773084,9.66572266 C7.42648084,9.68349609 7.72113905,9.71459961 8.00170545,9.7590332 L8.176766,9.791 L8.14947889,9.86643555 C8.11147759,9.96452799 8.07174126,10.0599121 8.03026991,10.1525879 C7.82291314,10.6159668 7.58699191,10.980957 7.32250623,11.2475586 C7.20915523,11.3618164 7.09288949,11.4515904 6.973709,11.5168806 L6.893766,11.555 Z M7.955766,11.724 L7.973141,11.707375 C8.21797917,11.4558438 8.44014714,11.1449382 8.63964491,10.7746582 C8.73274386,10.6018609 8.81926007,10.4191895 8.89919352,10.2266439 L8.990766,9.99 L9.03256483,10.0017676 C9.11085259,10.0274121 9.18723605,10.0544108 9.26171522,10.0827637 C9.55963189,10.1961751 9.82234022,10.3305762 10.0498402,10.4859668 L10.070766,10.502 L9.98567189,10.5823501 C9.55169947,10.9720185 9.06176405,11.2847377 8.51586561,11.5205078 C8.33389946,11.5990978 8.14856517,11.6664607 7.95986274,11.7225965 L7.955766,11.724 Z M5.007766,11.724 C4.81741146,11.6669286 4.63155339,11.5990978 4.45019178,11.5205078 C3.90610696,11.2847377 3.41643062,10.9720185 2.98116276,10.5823501 L2.893766,10.501 L2.9153285,10.4859668 C3.14553683,10.3305762 3.40959933,10.1961751 3.707516,10.0827637 L3.93666639,10.0017676 L3.93666639,10.0017676 L3.972766,9.991 L4.06439534,10.2266439 C4.14385859,10.4191895 4.2301397,10.6018609 4.32323866,10.7746582 C4.52273642,11.1449382 4.74544416,11.4558438 4.99136186,11.707375 L5.007766,11.724 Z" id="path-1"></path>
    </defs>
    <g id="点検結果一元化" stroke="none" stroke-width="1" fill="none" fill-rule="evenodd">
        <g id="globe" fill-rule="nonzero">
            <use fill="#000000" xlink:href="#path-1"></use>
            <use fill="#FFB200" xlink:href="#path-1"></use>
        </g>
    </g>
</svg>