<?xml version="1.0" encoding="UTF-8"?>
<svg width="8px" height="2px" viewBox="0 0 8 2" version="1.1" xmlns="http://www.w3.org/2000/svg" xmlns:xlink="http://www.w3.org/1999/xlink">
    <title>indeterminate</title>
    <g id="タスク管理" stroke="none" stroke-width="1" fill="none" fill-rule="evenodd">
        <path d="M7.40258789,1.42919922 C7.47583008,1.42919922 7.54541016,1.41015625 7.61132812,1.37207031 C7.67724609,1.33398438 7.72924805,1.28271484 7.76733398,1.21826172 C7.80541992,1.15380859 7.82446289,1.08203125 7.82446289,1.00292969 C7.82446289,0.926757812 7.80541992,0.856445312 7.76733398,0.791992188 C7.72924805,0.727539062 7.67724609,0.675537109 7.61132812,0.635986328 C7.54541016,0.596435547 7.47583008,0.576660156 7.40258789,0.576660156 L1.33813477,0.576660156 C1.26196289,0.576660156 1.19238281,0.596435547 1.12939453,0.635986328 C1.06640625,0.675537109 1.0144043,0.727539062 0.973388672,0.791992188 C0.932373047,0.856445312 0.911865234,0.926757812 0.911865234,1.00292969 C0.911865234,1.08203125 0.932373047,1.15380859 0.973388672,1.21826172 C1.0144043,1.28271484 1.06640625,1.33398438 1.12939453,1.37207031 C1.19238281,1.41015625 1.26196289,1.42919922 1.33813477,1.42919922 L7.40258789,1.42919922 Z" id="indeterminate" fill="#FFB200" fill-rule="nonzero"></path>
    </g>
</svg>