<?xml version="1.0" encoding="UTF-8"?>
<svg width="16px" height="16px" viewBox="0 0 16 16" version="1.1" xmlns="http://www.w3.org/2000/svg" xmlns:xlink="http://www.w3.org/1999/xlink">
    <title>pagination_arrow</title>
    <defs>
        <path d="M7.5625,15.2919922 C7.73242188,15.2919922 7.88330078,15.2553711 8.01513672,15.1821289 C8.14697266,15.1088867 8.25244141,15.0048828 8.33154297,14.8701172 C8.41064453,14.7353516 8.45019531,14.5859375 8.45019531,14.421875 C8.45019531,14.1816406 8.36230469,13.9707031 8.18652344,13.7890625 L2.242,7.994 L8.18652344,2.20507812 C8.36230469,2.0234375 8.45019531,1.8125 8.45019531,1.57226562 C8.45019531,1.40820312 8.41064453,1.25878906 8.33154297,1.12402344 C8.25244141,0.989257812 8.14697266,0.883789062 8.01513672,0.807617188 C7.88330078,0.731445312 7.73242188,0.693359375 7.5625,0.693359375 C7.32226562,0.693359375 7.1171875,0.778320312 6.94726562,0.948242188 L0.416992188,7.3203125 C0.323242188,7.4140625 0.25,7.51806641 0.197265625,7.63232422 C0.14453125,7.74658203 0.118164062,7.86816406 0.118164062,7.99707031 C0.118164062,8.24902344 0.217773438,8.47167969 0.416992188,8.66503906 L6.93847656,15.0458984 C7.02636719,15.1279297 7.12158203,15.1894531 7.22412109,15.2304688 C7.32666016,15.2714844 7.43945312,15.2919922 7.5625,15.2919922 Z M14.9892578,15.2919922 C15.1591797,15.2919922 15.3100586,15.2553711 15.4418945,15.1821289 C15.5737305,15.1088867 15.6791992,15.0048828 15.7583008,14.8701172 C15.8374023,14.7353516 15.8769531,14.5859375 15.8769531,14.421875 C15.8769531,14.1816406 15.7890625,13.9707031 15.6132812,13.7890625 L9.678,7.994 L15.6132812,2.20507812 C15.7890625,2.0234375 15.8769531,1.8125 15.8769531,1.57226562 C15.8769531,1.40820312 15.8374023,1.25878906 15.7583008,1.12402344 C15.6791992,0.989257812 15.5737305,0.883789062 15.4418945,0.807617188 C15.3100586,0.731445312 15.1591797,0.693359375 14.9892578,0.693359375 C14.7490234,0.693359375 14.5439453,0.778320312 14.3740234,0.948242188 L7.84375,7.3203125 C7.75,7.4140625 7.67675781,7.51806641 7.62402344,7.63232422 C7.57128906,7.74658203 7.54492188,7.86816406 7.54492188,7.99707031 C7.54492188,8.24902344 7.64453125,8.47167969 7.84375,8.66503906 L14.3740234,15.0458984 C14.4560547,15.1279297 14.5483398,15.1894531 14.6508789,15.2304688 C14.753418,15.2714844 14.8662109,15.2919922 14.9892578,15.2919922 Z" id="path-1"></path>
    </defs>
    <g id="点検結果一元化" stroke="none" stroke-width="1" fill="none" fill-rule="evenodd">
        <g id="pagination_arrow" fill-rule="nonzero">
            <use fill="#000000" xlink:href="#path-1"></use>
            <use fill="#FFB200" xlink:href="#path-1"></use>
        </g>
    </g>
</svg>