<?xml version="1.0" encoding="UTF-8"?>
<svg width="10px" height="16px" viewBox="0 0 10 16" version="1.1" xmlns="http://www.w3.org/2000/svg" xmlns:xlink="http://www.w3.org/1999/xlink">
    <title>􀯶</title>
    <g id="タスク管理" stroke="none" stroke-width="1" fill="none" fill-rule="evenodd">
        <path d="M8.26757812,15.2919922 C8.43164062,15.2919922 8.58105469,15.2553711 8.71582031,15.1821289 C8.85058594,15.1088867 8.95751953,15.003418 9.03662109,14.8657227 C9.11572266,14.7280273 9.15527344,14.5800781 9.15527344,14.421875 C9.15527344,14.1816406 9.06445312,13.9707031 8.8828125,13.7890625 L2.95019531,7.99707031 L8.8828125,2.20507812 C9.06445312,2.0234375 9.15527344,1.8125 9.15527344,1.57226562 C9.15527344,1.40820312 9.11572266,1.25878906 9.03662109,1.12402344 C8.95751953,0.989257812 8.85058594,0.885253906 8.71582031,0.812011719 C8.58105469,0.738769531 8.43164062,0.702148438 8.26757812,0.702148438 C8.02148438,0.702148438 7.81347656,0.784179688 7.64355469,0.948242188 L1.12207031,7.33789062 C1.01660156,7.43164062 0.941894531,7.53271484 0.897949219,7.64111328 C0.854003906,7.74951172 0.83203125,7.86816406 0.83203125,7.99707031 C0.83203125,8.12597656 0.854003906,8.24462891 0.897949219,8.35302734 C0.941894531,8.46142578 1.01660156,8.5625 1.12207031,8.65625 L7.64355469,15.0458984 C7.81347656,15.2099609 8.02148438,15.2919922 8.26757812,15.2919922 Z" id="􀯶" fill="#FFB200" fill-rule="nonzero"></path>
    </g>
</svg>