<?xml version="1.0" encoding="UTF-8"?>
<svg width="13px" height="13px" viewBox="0 0 13 13" version="1.1" xmlns="http://www.w3.org/2000/svg" xmlns:xlink="http://www.w3.org/1999/xlink">
    <title>􀊫</title>
    <g id="タスク管理" stroke="none" stroke-width="1" fill="none" fill-rule="evenodd">
        <path d="M11.90625,12.5175781 C12.0703125,12.5175781 12.2161458,12.4811198 12.34375,12.4082031 C12.4713542,12.3352865 12.5704753,12.2338867 12.6411133,12.1040039 C12.7117513,11.9741211 12.7470703,11.8294271 12.7470703,11.6699219 C12.7470703,11.5605469 12.7277018,11.4534505 12.6889648,11.3486328 C12.6502279,11.2438151 12.5898438,11.1526693 12.5078125,11.0751953 L12.5078125,11.0751953 L9.587,8.143 L9.61844308,8.10072545 C9.77943638,7.87555804 9.92180525,7.63741629 10.0455497,7.38630022 L10.1630859,7.13085938 C10.4228516,6.52473958 10.5527344,5.87532552 10.5527344,5.18261719 C10.5527344,4.48990885 10.4228516,3.83935547 10.1630859,3.23095703 C9.90332031,2.62255859 9.54215495,2.08707682 9.07958984,1.62451172 C8.61702474,1.16194661 8.08154297,0.799641927 7.47314453,0.537597656 C6.86474609,0.275553385 6.21419271,0.14453125 5.52148438,0.14453125 C4.82877604,0.14453125 4.17936198,0.275553385 3.57324219,0.537597656 C2.9671224,0.799641927 2.43164062,1.16194661 1.96679688,1.62451172 C1.50195312,2.08707682 1.13964844,2.62141927 0.879882812,3.22753906 C0.620117188,3.83365885 0.490234375,4.48535156 0.490234375,5.18261719 C0.490234375,5.87532552 0.620117188,6.52473958 0.879882812,7.13085938 C1.13964844,7.73697917 1.5008138,8.27246094 1.96337891,8.73730469 C2.42594401,9.20214844 2.96142578,9.56445312 3.56982422,9.82421875 C4.17822266,10.0839844 4.82877604,10.2138672 5.52148438,10.2138672 C6.21419271,10.2138672 6.86474609,10.0839844 7.47314453,9.82421875 C7.73388672,9.71289062 7.98123605,9.58272879 8.21519252,9.43373326 L8.361,9.335 L11.3046875,12.2714844 C11.359375,12.3292101 11.4191262,12.3763021 11.483941,12.4127604 L11.5849609,12.4594727 C11.6897786,12.4982096 11.796875,12.5175781 11.90625,12.5175781 Z M5.52148438,8.99023438 C5.00195312,8.99023438 4.51090495,8.89111328 4.04833984,8.69287109 C3.58577474,8.49462891 3.18017578,8.22005208 2.83154297,7.86914062 C2.48291016,7.51822917 2.20947266,7.11376953 2.01123047,6.65576172 C1.81298828,6.19775391 1.71386719,5.70670573 1.71386719,5.18261719 C1.71386719,4.66308594 1.81298828,4.17317708 2.01123047,3.71289062 C2.20947266,3.25260417 2.48291016,2.84700521 2.83154297,2.49609375 C3.18017578,2.14518229 3.58577474,1.86946615 4.04833984,1.66894531 C4.51090495,1.46842448 5.00195312,1.36816406 5.52148438,1.36816406 C6.04557292,1.36816406 6.53776042,1.46842448 6.99804688,1.66894531 C7.45833333,1.86946615 7.86279297,2.14518229 8.21142578,2.49609375 C8.56005859,2.84700521 8.83349609,3.25260417 9.03173828,3.71289062 C9.22998047,4.17317708 9.32910156,4.66308594 9.32910156,5.18261719 C9.32910156,5.70670573 9.22998047,6.19775391 9.03173828,6.65576172 C8.83349609,7.11376953 8.56005859,7.51822917 8.21142578,7.86914062 C7.86279297,8.22005208 7.45833333,8.49462891 6.99804688,8.69287109 C6.53776042,8.89111328 6.04557292,8.99023438 5.52148438,8.99023438 Z" id="􀊫" fill="#FFB200" fill-rule="nonzero"></path>
    </g>
</svg>