<?xml version="1.0" encoding="UTF-8"?>
<svg width="17px" height="16px" viewBox="0 0 17 16" version="1.1" xmlns="http://www.w3.org/2000/svg" xmlns:xlink="http://www.w3.org/1999/xlink">
    <title>search</title>
    <defs>
        <path d="M15.520996,15.9511719 C15.7319335,15.9511719 15.9194335,15.9042969 16.083496,15.8105469 C16.2475585,15.7167969 16.3749999,15.5864258 16.4658202,15.4194336 C16.5566405,15.2524414 16.6020507,15.0664062 16.6020507,14.8613281 C16.6020507,14.7207031 16.5771483,14.5830078 16.5273437,14.4482422 C16.477539,14.3134766 16.3999022,14.1962891 16.2944335,14.0966797 L16.2944335,14.0966797 L12.538246,10.327 L12.6810302,10.1262207 C12.8551635,9.86804199 13.0109633,9.59709167 13.1484298,9.31336975 L13.2797851,9.02539062 C13.6137694,8.24609375 13.7807616,7.41113281 13.7807616,6.52050781 C13.7807616,5.62988281 13.6137694,4.79345703 13.2797851,4.01123047 C12.9458007,3.22900391 12.4814452,2.54052734 11.8867187,1.94580078 C11.2919921,1.35107422 10.6035155,0.885253906 9.82128897,0.548339844 C9.03906241,0.211425781 8.20263662,0.04296875 7.31201162,0.04296875 C6.42138662,0.04296875 5.58642569,0.211425781 4.80712881,0.548339844 C4.02783194,0.885253906 3.33935537,1.35107422 2.74169912,1.94580078 C2.14404287,2.54052734 1.67822256,3.22753906 1.34423819,4.00683594 C1.01025381,4.78613281 0.843261625,5.62402344 0.843261625,6.52050781 C0.843261625,7.41113281 1.01025381,8.24609375 1.34423819,9.02539062 C1.67822256,9.8046875 2.14257803,10.4931641 2.73730459,11.0908203 C3.33203116,11.6884766 4.02050772,12.1542969 4.80273428,12.4882812 C5.58496084,12.8222656 6.42138662,12.9892578 7.31201162,12.9892578 C8.20263662,12.9892578 9.03906241,12.8222656 9.82128897,12.4882812 C10.2124022,12.3212891 10.580078,12.1213379 10.9243163,11.8884277 L10.964246,11.86 L14.7475585,15.6347656 C14.8266601,15.7182617 14.9140014,15.7844543 15.0095824,15.8333435 L15.1079101,15.8764648 C15.2426757,15.9262695 15.380371,15.9511719 15.520996,15.9511719 Z M7.31201162,11.4160156 C6.64404287,11.4160156 6.01269522,11.2885742 5.41796866,11.0336914 C4.82324209,10.7788086 4.30175772,10.4257812 3.85351553,9.97460938 C3.40527334,9.5234375 3.05371084,9.00341797 2.79882803,8.41455078 C2.54394522,7.82568359 2.41650381,7.19433594 2.41650381,6.52050781 C2.41650381,5.85253906 2.54394522,5.22265625 2.79882803,4.63085938 C3.05371084,4.0390625 3.40527334,3.51757812 3.85351553,3.06640625 C4.30175772,2.61523438 4.82324209,2.26074219 5.41796866,2.00292969 C6.01269522,1.74511719 6.64404287,1.61621094 7.31201162,1.61621094 C7.98583975,1.61621094 8.61865225,1.74511719 9.21044912,2.00292969 C9.802246,2.26074219 10.3222655,2.61523438 10.7705077,3.06640625 C11.2187499,3.51757812 11.5703124,4.0390625 11.8251952,4.63085938 C12.080078,5.22265625 12.2075194,5.85253906 12.2075194,6.52050781 C12.2075194,7.19433594 12.080078,7.82568359 11.8251952,8.41455078 C11.5703124,9.00341797 11.2187499,9.5234375 10.7705077,9.97460938 C10.3222655,10.4257812 9.802246,10.7788086 9.21044912,11.0336914 C8.61865225,11.2885742 7.98583975,11.4160156 7.31201162,11.4160156 Z" id="path-1"></path>
    </defs>
    <g id="点検結果一元化" stroke="none" stroke-width="1" fill="none" fill-rule="evenodd">
        <g id="search" fill-rule="nonzero">
            <use fill="#000000" xlink:href="#path-1"></use>
            <use fill="#353F43" xlink:href="#path-1"></use>
        </g>
    </g>
</svg>