<?xml version="1.0" encoding="UTF-8"?>
<svg width="10px" height="12px" viewBox="0 0 10 12" version="1.1" xmlns="http://www.w3.org/2000/svg" xmlns:xlink="http://www.w3.org/1999/xlink">
    <title>upload</title>
    <g id="タスク管理" stroke="none" stroke-width="1" fill="none" fill-rule="evenodd">
        <path d="M5.3737793,7.69042969 C5.49552409,7.69042969 5.59936523,7.64656576 5.68530273,7.55883789 C5.77124023,7.47111003 5.81420898,7.36995443 5.81420898,7.25537109 L5.81420898,2.09375 L5.78198242,1.34179688 L6.10961914,1.70703125 L6.84545898,2.48583984 C6.9206543,2.57535807 7.02091471,2.62011719 7.14624023,2.62011719 C7.25366211,2.62011719 7.34676107,2.5843099 7.42553711,2.51269531 C7.50431315,2.44108073 7.54370117,2.34977214 7.54370117,2.23876953 C7.54370117,2.13134766 7.50073242,2.03645833 7.41479492,1.95410156 L5.70678711,0.299804688 C5.64591471,0.242513021 5.58951823,0.203125 5.53759766,0.181640625 C5.48567708,0.16015625 5.43107096,0.149414062 5.3737793,0.149414062 C5.31648763,0.149414062 5.26188151,0.16015625 5.20996094,0.181640625 C5.15804036,0.203125 5.10164388,0.242513021 5.04077148,0.299804688 L3.33276367,1.95410156 C3.24682617,2.03645833 3.20385742,2.13134766 3.20385742,2.23876953 C3.20385742,2.34977214 3.24235026,2.44108073 3.31933594,2.51269531 C3.39632161,2.5843099 3.49031576,2.62011719 3.60131836,2.62011719 C3.72306315,2.62011719 3.82332357,2.57535807 3.90209961,2.48583984 L4.63793945,1.70703125 L4.97094727,1.33642578 L4.93334961,2.09375 L4.93334961,7.25537109 C4.93334961,7.36995443 4.97631836,7.47111003 5.06225586,7.55883789 C5.14819336,7.64656576 5.25203451,7.69042969 5.3737793,7.69042969 Z M8.2902832,11.7080078 C8.83455404,11.7080078 9.24365234,11.5719401 9.51757812,11.2998047 C9.79150391,11.0276693 9.9284668,10.6248372 9.9284668,10.0913086 L9.9284668,5.06396484 C9.9284668,4.5304362 9.79150391,4.12670898 9.51757812,3.8527832 C9.24365234,3.57885742 8.83455404,3.44189453 8.2902832,3.44189453 L6.89916992,3.44189453 L6.89916992,4.36572266 L8.25268555,4.36572266 C8.4925944,4.36572266 8.67879232,4.4292806 8.8112793,4.55639648 C8.94376628,4.68351237 9.01000977,4.8741862 9.01000977,5.12841797 L9.01000977,10.0268555 C9.01000977,10.2775065 8.94376628,10.46639 8.8112793,10.5935059 C8.67879232,10.7206217 8.4925944,10.7841797 8.25268555,10.7841797 L2.48950195,10.7841797 C2.2495931,10.7841797 2.06429036,10.7206217 1.93359375,10.5935059 C1.80289714,10.46639 1.73754883,10.2775065 1.73754883,10.0268555 L1.73754883,5.12841797 C1.73754883,4.8741862 1.80289714,4.68351237 1.93359375,4.55639648 C2.06429036,4.4292806 2.2495931,4.36572266 2.48950195,4.36572266 L3.84838867,4.36572266 L3.84838867,3.44189453 L2.4519043,3.44189453 C1.91121419,3.44189453 1.50301107,3.57796224 1.22729492,3.85009766 C0.951578776,4.12223307 0.813720703,4.52685547 0.813720703,5.06396484 L0.813720703,10.0913086 C0.813720703,10.6248372 0.951578776,11.0276693 1.22729492,11.2998047 C1.50301107,11.5719401 1.91121419,11.7080078 2.4519043,11.7080078 L8.2902832,11.7080078 Z" id="upload" fill="#FFFFFF" fill-rule="nonzero"></path>
    </g>
</svg>