<?xml version="1.0" encoding="UTF-8"?>
<svg width="18px" height="16px" viewBox="0 0 18 16" version="1.1" xmlns="http://www.w3.org/2000/svg" xmlns:xlink="http://www.w3.org/1999/xlink">
    <title>warning</title>
    <defs>
        <path d="M15.214871,15.8510742 C16.6260038,15.8510742 17.5058866,14.8383789 17.5058866,13.5600586 C17.5058866,13.1782227 17.4062773,12.7880859 17.1987577,12.4311523 L10.7988554,1.28320312 C10.3672148,0.527832031 9.60354288,0.12109375 8.83157022,0.12109375 C8.05129678,0.12109375 7.28762491,0.527832031 6.85598428,1.28320312 L0.456081941,12.4394531 C0.24856241,12.7963867 0.148953035,13.1782227 0.148953035,13.5600586 C0.148953035,14.8383789 1.02883585,15.8510742 2.43996866,15.8510742 L15.214871,15.8510742 Z M15.1982694,14.5478516 L2.44826944,14.5478516 C1.87551553,14.5478516 1.4936796,14.074707 1.4936796,13.5600586 C1.4936796,13.4106445 1.51858194,13.2363281 1.60158975,13.0620117 L7.99319132,1.9140625 C8.1758085,1.59863281 8.50783975,1.44921875 8.83157022,1.44921875 C9.15530069,1.44921875 9.47073038,1.59033203 9.65334757,1.9140625 L16.0366483,13.0703125 C16.1279569,13.2363281 16.1694608,13.4106445 16.1694608,13.5600586 C16.1694608,14.074707 15.7710233,14.5478516 15.1982694,14.5478516 Z M8.83157022,10.2563477 C9.23000772,10.2563477 9.45412882,10.0239258 9.4624296,9.59228516 L9.58694132,5.21777344 C9.5952421,4.79443359 9.26321085,4.47900391 8.82326944,4.47900391 C8.37502725,4.47900391 8.05959757,4.78613281 8.06789835,5.20947266 L8.1758085,9.59228516 C8.18410928,10.015625 8.41653116,10.2563477 8.83157022,10.2563477 Z M8.83157022,12.9541016 C9.30471475,12.9541016 9.7280546,12.5722656 9.7280546,12.0908203 C9.7280546,11.6010742 9.31301553,11.2275391 8.83157022,11.2275391 C8.34182413,11.2275391 7.93508585,11.609375 7.93508585,12.0908203 C7.93508585,12.5639648 8.35012491,12.9541016 8.83157022,12.9541016 Z" id="path-1"></path>
    </defs>
    <g id="点検結果一元化" stroke="none" stroke-width="1" fill="none" fill-rule="evenodd">
        <g id="warning" fill-rule="nonzero">
            <use fill="#000000" xlink:href="#path-1"></use>
            <use fill="#FF453A" xlink:href="#path-1"></use>
        </g>
    </g>
</svg>