<?xml version="1.0" encoding="UTF-8"?>
<svg width="12px" height="10px" viewBox="0 0 12 10" version="1.1" xmlns="http://www.w3.org/2000/svg" xmlns:xlink="http://www.w3.org/1999/xlink">
    <title>window</title>
    <g id="タスク管理" stroke="none" stroke-width="1" fill="none" fill-rule="evenodd">
        <path d="M10.0671387,9.50732422 C10.5095215,9.50732422 10.8427734,9.39526367 11.0668945,9.17114258 C11.2910156,8.94702148 11.4030762,8.61669922 11.4030762,8.18017578 L11.4030762,3.75488281 C11.4030762,3.31835938 11.2910156,2.98876953 11.0668945,2.76611328 C10.8427734,2.54345703 10.5095215,2.43212891 10.0671387,2.43212891 L9.293,2.433 L9.29370117,1.76416016 C9.29370117,1.32763672 9.18164062,0.998046875 8.95751953,0.775390625 C8.73339844,0.552734375 8.40161133,0.44140625 7.9621582,0.44140625 L1.67358398,0.44140625 C1.22827148,0.44140625 0.893554688,0.552734375 0.669433594,0.775390625 C0.4453125,0.998046875 0.333251953,1.32763672 0.333251953,1.76416016 L0.333251953,6.15429688 C0.333251953,6.59082031 0.4453125,6.92041016 0.669433594,7.14306641 C0.893554688,7.36572266 1.22827148,7.47705078 1.67358398,7.47705078 L2.442,7.478 L2.44262695,8.18017578 C2.44262695,8.61669922 2.5546875,8.94702148 2.77880859,9.17114258 C3.00292969,9.39526367 3.33764648,9.50732422 3.78295898,9.50732422 L10.0671387,9.50732422 Z M2.442,6.722 L1.7043457,6.72119141 C1.50805664,6.72119141 1.35644531,6.66918945 1.24951172,6.56518555 C1.14257812,6.46118164 1.08911133,6.30517578 1.08911133,6.09716797 L1.08911133,1.82128906 C1.08911133,1.61328125 1.14257812,1.45727539 1.24951172,1.35327148 C1.35644531,1.24926758 1.50805664,1.19726562 1.7043457,1.19726562 L7.92260742,1.19726562 C8.12182617,1.19726562 8.27490234,1.24926758 8.38183594,1.35327148 C8.48876953,1.45727539 8.54223633,1.61328125 8.54223633,1.82128906 L8.542,2.433 L3.78295898,2.43212891 C3.33764648,2.43212891 3.00292969,2.54272461 2.77880859,2.76391602 C2.5546875,2.98510742 2.44262695,3.31542969 2.44262695,3.75488281 L2.442,6.722 Z M3.83129883,3.87792969 C3.72583008,3.87792969 3.63574219,3.83984375 3.56103516,3.76367188 C3.48632812,3.6875 3.44897461,3.59814453 3.44897461,3.49560547 C3.44897461,3.39599609 3.48632812,3.30810547 3.56103516,3.23193359 C3.63574219,3.15576172 3.72583008,3.11767578 3.83129883,3.11767578 C3.93676758,3.11767578 4.02612305,3.15576172 4.09936523,3.23193359 C4.17260742,3.30810547 4.20922852,3.39599609 4.20922852,3.49560547 C4.20922852,3.59814453 4.17260742,3.6875 4.09936523,3.76367188 C4.02612305,3.83984375 3.93676758,3.87792969 3.83129883,3.87792969 Z M5.03979492,3.87792969 C4.93432617,3.87792969 4.8449707,3.83984375 4.77172852,3.76367188 C4.69848633,3.6875 4.66186523,3.59814453 4.66186523,3.49560547 C4.66186523,3.39599609 4.69848633,3.30810547 4.77172852,3.23193359 C4.8449707,3.15576172 4.93432617,3.11767578 5.03979492,3.11767578 C5.14526367,3.11767578 5.23535156,3.15576172 5.31005859,3.23193359 C5.38476562,3.30810547 5.42211914,3.39599609 5.42211914,3.49560547 C5.42211914,3.59814453 5.38476562,3.6875 5.31005859,3.76367188 C5.23535156,3.83984375 5.14526367,3.87792969 5.03979492,3.87792969 Z M6.25268555,3.87792969 C6.1472168,3.87792969 6.05712891,3.83984375 5.98242188,3.76367188 C5.90771484,3.6875 5.87036133,3.59814453 5.87036133,3.49560547 C5.87036133,3.39599609 5.90771484,3.30810547 5.98242188,3.23193359 C6.05712891,3.15576172 6.1472168,3.11767578 6.25268555,3.11767578 C6.3581543,3.11767578 6.44750977,3.15576172 6.52075195,3.23193359 C6.59399414,3.30810547 6.63061523,3.39599609 6.63061523,3.49560547 C6.63061523,3.59814453 6.59399414,3.6875 6.52075195,3.76367188 C6.44750977,3.83984375 6.3581543,3.87792969 6.25268555,3.87792969 Z M10.0319824,8.75146484 L3.8137207,8.75146484 C3.61450195,8.75146484 3.46142578,8.69873047 3.35449219,8.59326172 C3.24755859,8.48779297 3.1940918,8.33251953 3.1940918,8.12744141 L3.1940918,4.56347656 L10.6516113,4.56347656 L10.6516113,8.12744141 C10.6516113,8.33251953 10.5981445,8.48779297 10.4912109,8.59326172 C10.3842773,8.69873047 10.2312012,8.75146484 10.0319824,8.75146484 Z" id="window" fill="#FFB200" fill-rule="nonzero"></path>
    </g>
</svg>